<svg width="147" height="47" viewBox="0 0 147 47" fill="none" xmlns="http://www.w3.org/2000/svg">
<g clip-path="url(#clip0_346_2962)">
<path d="M1.53628 38.1014C0.599441 37.5521 0.0234375 36.5398 0.0234375 35.4453V23.4673C0.0234375 24.5632 0.599441 25.5754 1.53628 26.1234L17.4626 35.4574V46.1074C17.4626 46.6972 16.8291 47.0656 16.3253 46.7687L1.53628 38.1014Z" fill="#0F19A0"/>
<path d="M1.53628 20.8341C0.599441 21.3834 0.0234375 22.3956 0.0234375 23.4901V35.4682C0.0234375 34.3722 0.599441 33.36 1.53628 32.8121L17.4626 23.478V11.5L1.53628 20.8341Z" fill="#C82A87"/>
<path d="M33.3892 8.8547C34.326 9.404 34.902 10.4162 34.902 11.5108V23.4888C34.902 22.3929 34.326 21.3807 33.3892 20.8327L17.4629 11.4986V0.850019C17.4629 0.260228 18.0964 -0.108222 18.6002 0.188698L33.3892 8.85605V8.8547Z" fill="#0F19A0"/>
<path d="M33.3892 26.1233C34.326 25.574 34.902 24.5618 34.902 23.4673V11.4893C34.902 12.5852 34.326 13.5974 33.3892 14.1453L17.4629 23.4794V35.4574L33.3892 26.1233Z" fill="#C82A87"/>
<path d="M40.5398 39.8809H42.7964C42.89 41.0041 43.6266 41.7169 44.7869 41.7169C45.8377 41.7169 46.5422 41.2741 46.5422 40.4344C46.5422 38.2662 40.8526 39.9281 40.8526 35.5756C40.8526 33.7395 42.4194 32.4421 44.6452 32.4421C47.0114 32.4421 48.6103 33.8192 48.6731 35.9239H46.4312C46.3524 35.0531 45.6946 34.4834 44.6439 34.4834C43.7188 34.4834 43.1386 34.9262 43.1386 35.5756C43.1386 37.8869 48.9071 36.0184 48.9071 40.4034C48.9071 42.477 47.2454 43.7744 44.7843 43.7744C42.3231 43.7744 40.6307 42.2394 40.5371 39.8809" fill="#0F19A0"/>
<path d="M51.6948 38.7575H55.1906C55.1278 37.8706 54.5168 37.1591 53.4661 37.1591C52.4782 37.1591 51.8833 37.6492 51.6948 38.7575ZM57.3844 40.9419C57.0702 42.6673 55.5663 43.7757 53.6225 43.7757C50.9421 43.7757 49.5625 41.6547 49.5625 39.6445C49.5625 37.6343 50.7844 35.5444 53.4647 35.5444C56.1451 35.5444 57.367 37.6181 57.367 39.438C57.367 39.739 57.3509 39.9766 57.3362 40.1508H51.6627C51.8191 41.274 52.5249 41.9706 53.6225 41.9706C54.5008 41.9706 55.0796 41.6223 55.2521 40.9419H57.3844Z" fill="#0F19A0"/>
<path d="M62.1212 37.5061C61.0397 37.5061 60.5531 38.4079 60.5531 39.7701V43.6488H58.3594V35.6714H60.5531V37.0012C60.9769 36.0035 61.5718 35.6714 62.5276 35.6714H63.4207V37.5074H62.1199L62.1212 37.5061Z" fill="#0F19A0"/>
<path d="M64.084 35.6699H66.3098L67.9715 40.8311L69.6172 35.6699H71.8577L68.9742 43.6473H66.9676L64.084 35.6699Z" fill="#0F19A0"/>
<path d="M72.5335 35.67H74.7273V43.6474H72.5335V35.67ZM74.7901 34.5306H72.4707V32.2031H74.7901V34.5306Z" fill="#0F19A0"/>
<path d="M75.6055 39.6594C75.6055 37.3319 77.2351 35.5444 79.6802 35.5444C81.7496 35.5444 83.3953 36.8108 83.5356 38.663H81.3419C81.2162 37.9502 80.5424 37.4291 79.743 37.4291C78.5679 37.4291 77.8781 38.3633 77.8781 39.6607C77.8781 40.9581 78.584 41.8761 79.7751 41.8761C80.5745 41.8761 81.2175 41.3861 81.3739 40.6733H83.5998C83.3645 42.4459 81.7349 43.7757 79.6815 43.7757C77.2364 43.7757 75.6068 41.9868 75.6068 39.6607" fill="#0F19A0"/>
<path d="M86.4077 38.7575H89.9035C89.8407 37.8706 89.2297 37.1591 88.179 37.1591C87.191 37.1591 86.5962 37.6492 86.4077 38.7575ZM92.0973 40.9419C91.7831 42.6673 90.2792 43.7757 88.3354 43.7757C85.655 43.7757 84.2754 41.6547 84.2754 39.6445C84.2754 37.6343 85.4973 35.5444 88.1776 35.5444C90.858 35.5444 92.0799 37.6181 92.0799 39.438C92.0799 39.739 92.0638 39.9766 92.0478 40.1508H86.3742C86.5306 41.274 87.2365 41.9706 88.334 41.9706C89.211 41.9706 89.7912 41.6223 89.9637 40.9419H92.0959H92.0973Z" fill="#0F19A0"/>
<path d="M45.5564 23.3346C46.654 23.3346 47.1232 22.6218 47.1232 21.8145C47.1232 21.0072 46.6526 20.2943 45.5564 20.2943H43.5498V23.3333H45.5564V23.3346ZM41.1836 18.3179H45.6981C48.0336 18.3179 49.3972 19.7746 49.3972 21.8158C49.3972 23.8571 48.0336 25.3138 45.6981 25.3138H43.5511V29.3977H41.1849V18.3179H41.1836Z" fill="#0F19A0"/>
<path d="M51.6889 24.5066H55.1847C55.1219 23.6196 54.511 22.9081 53.4602 22.9081C52.4723 22.9081 51.8774 23.3995 51.6889 24.5066ZM57.3785 26.6909C57.0643 28.4163 55.5604 29.5247 53.6166 29.5247C50.9363 29.5247 49.5566 27.4038 49.5566 25.3935C49.5566 23.3833 50.7785 21.2935 53.4589 21.2935C56.1393 21.2935 57.3625 23.3671 57.3625 25.187C57.3625 25.488 57.3464 25.7257 57.3304 25.8998H51.6568C51.8132 27.023 52.5191 27.7197 53.6166 27.7197C54.4949 27.7197 55.0738 27.3714 55.2462 26.6909H57.3785Z" fill="#0F19A0"/>
<path d="M58.3535 21.4204H60.5473V22.5287C60.9858 21.7538 61.8641 21.2935 62.9456 21.2935C64.7329 21.2935 65.892 22.5908 65.892 24.4269V29.3978H63.6982V24.9183C63.6982 23.953 63.0873 23.2564 62.1782 23.2564C61.2224 23.2564 60.5486 24.0003 60.5486 25.029V29.3978H58.3548V21.4204H58.3535Z" fill="#0F19A0"/>
<path d="M67.0332 26.7072H68.9141C68.9917 27.4201 69.5411 27.8629 70.3566 27.8629C71.0304 27.8629 71.5009 27.5308 71.5009 27.088C71.5009 25.4571 67.2538 27.0569 67.2538 23.7007C67.2538 22.2926 68.461 21.2949 70.0745 21.2949C71.9715 21.2949 73.2562 22.3237 73.3351 23.8911H71.4381C71.3445 23.2106 70.7322 22.8461 70.1374 22.8461C69.5425 22.8461 69.1026 23.1148 69.1026 23.621C69.1026 25.2519 73.4287 23.3996 73.4287 27.0083C73.4287 28.5271 72.2054 29.5248 70.3566 29.5248C68.5077 29.5248 67.1121 28.4326 67.0345 26.7072" fill="#0F19A0"/>
<path d="M74.4261 21.4204H76.6199V29.3978H74.4261V21.4204ZM76.6827 20.2796H74.3633V17.9521H76.6827V20.2796Z" fill="#0F19A0"/>
<path d="M83.775 25.4084C83.775 24.0786 82.9756 23.1768 81.8005 23.1768C80.6254 23.1768 79.826 24.0786 79.826 25.4084C79.826 26.7382 80.6254 27.6238 81.8005 27.6238C82.9756 27.6238 83.775 26.722 83.775 25.4084ZM77.6309 25.4084C77.6309 23.0337 79.3701 21.2935 81.8005 21.2935C84.2309 21.2935 85.9701 23.035 85.9701 25.4084C85.9701 27.7818 84.2309 29.5233 81.8005 29.5233C79.3701 29.5233 77.6309 27.7818 77.6309 25.4084Z" fill="#0F19A0"/>
<path d="M86.7559 21.4204H88.9496V22.5287C89.3881 21.7538 90.2664 21.2935 91.3479 21.2935C93.1339 21.2935 94.2943 22.5908 94.2943 24.4269V29.3978H92.1006V24.9183C92.1006 23.953 91.4896 23.2564 90.5806 23.2564C89.6247 23.2564 88.951 24.0003 88.951 25.029V29.3978H86.7572V21.4204H86.7559Z" fill="#0F19A0"/>
<path d="M95.4375 26.7072H97.3184C97.3973 27.4201 97.9454 27.8629 98.7609 27.8629C99.4347 27.8629 99.9052 27.5308 99.9052 27.088C99.9052 25.4571 95.6581 27.0569 95.6581 23.7007C95.6581 22.2926 96.8652 21.2949 98.4788 21.2949C100.376 21.2949 101.661 22.3237 101.739 23.8911H99.8424C99.7488 23.2106 99.1365 22.8461 98.5417 22.8461C97.9468 22.8461 97.5069 23.1148 97.5069 23.621C97.5069 25.2519 101.833 23.3996 101.833 27.0083C101.833 28.5271 100.61 29.5248 98.7609 29.5248C96.912 29.5248 95.5164 28.4326 95.4388 26.7072" fill="#0F19A0"/>
<path d="M93.1913 8.24523C94.0215 7.86452 94.6645 7.45411 94.6645 6.69403C94.6645 6.04466 94.21 5.61805 93.5523 5.61805C92.8945 5.61805 92.4547 6.06086 92.4547 6.74263C92.4547 7.20165 92.8157 7.77137 93.1913 8.24658M94.8998 12.8043L92.7836 10.462C92.1098 10.8265 91.6232 11.2369 91.6232 11.9498C91.6232 12.8043 92.2341 13.343 93.2528 13.343C93.7702 13.343 94.3504 13.185 94.8985 12.8043M97 15.1467L96.1538 14.2124C95.3236 14.9091 94.3985 15.2736 93.2381 15.2736C91.0911 15.2736 89.5391 14.0234 89.5391 11.9336C89.5391 10.3662 90.4642 9.55883 91.5296 9.00531C90.9655 8.29249 90.5577 7.58101 90.5577 6.83714C90.5577 5.09558 91.7489 3.93994 93.5509 3.93994C95.353 3.93994 96.5294 5.09558 96.5294 6.80474C96.5294 8.38699 95.5415 9.14706 94.4453 9.68573L96.107 11.5218L97.0321 10.4134C97.6898 9.55883 98.286 9.36847 99.1643 9.36847V11.4097C98.4906 11.4097 98.02 11.9484 97.6911 12.3912L97.3302 12.8813L99.3675 15.1453H97.0013L97 15.1467Z" fill="#0F19A0"/>
<path d="M41.1836 4.06689H43.8319L47.0296 11.8067L50.242 4.06689H52.8756V15.1467H50.6819V8.38839L47.9066 15.1467H46.1673L43.3774 8.38839V15.1467H41.1836V4.06689Z" fill="#0F19A0"/>
<path d="M60.1207 11.1574C60.1207 9.82762 59.3213 8.92579 58.1462 8.92579C56.9711 8.92579 56.1717 9.82762 56.1717 11.1574C56.1717 12.4872 56.9711 13.3728 58.1462 13.3728C59.3213 13.3728 60.1207 12.471 60.1207 11.1574ZM53.9766 11.1574C53.9766 8.78269 55.7158 7.04248 58.1462 7.04248C60.5766 7.04248 62.3158 8.78404 62.3158 11.1574C62.3158 13.5308 60.5766 15.2724 58.1462 15.2724C55.7158 15.2724 53.9766 13.5308 53.9766 11.1574Z" fill="#0F19A0"/>
<path d="M63.2012 7.16938H65.3949V8.27777C65.8334 7.50285 66.7117 7.04248 67.7932 7.04248C69.5806 7.04248 70.7396 8.33987 70.7396 10.1759V15.1468H68.5459V10.6673C68.5459 9.70207 67.9349 9.00545 67.0259 9.00545C66.07 9.00545 65.3963 9.74932 65.3963 10.7781V15.1468H63.2025V7.16938H63.2012Z" fill="#0F19A0"/>
<path d="M73.8217 10.2556H77.3176C77.2547 9.36861 76.6438 8.65713 75.593 8.65713C74.6051 8.65713 74.0102 9.14855 73.8217 10.2556ZM79.5113 12.44C79.1972 14.1653 77.6932 15.2737 75.7494 15.2737C73.0691 15.2737 71.6895 13.1528 71.6895 11.1426C71.6895 9.13235 72.9113 7.04248 75.5917 7.04248C78.2721 7.04248 79.4939 9.11615 79.4939 10.936C79.4939 11.2371 79.4779 11.4747 79.4632 11.6488H73.7896C73.946 12.7721 74.6519 13.4687 75.7494 13.4687C76.6264 13.4687 77.2066 13.1204 77.3791 12.44H79.5113Z" fill="#0F19A0"/>
<path d="M84.6601 15.1156L83.5479 18.3759H81.4624L82.6228 15.0832L79.7539 7.16919H81.9798L83.6414 12.3129L85.2871 7.16919H87.529L84.6601 15.1156Z" fill="#0F19A0"/>
</g>
<defs>
<clipPath id="clip0_346_2962">
<rect width="147" height="47" fill="white"/>
</clipPath>
</defs>
</svg>
